<?xml version="1.0" standalone="no"?>
<!DOCTYPE svg PUBLIC "-//W3C//DTD SVG 20010904//EN"
 "http://www.w3.org/TR/2001/REC-SVG-20010904/DTD/svg10.dtd">
<svg version="1.0" xmlns="http://www.w3.org/2000/svg"
 width="400.000000pt" height="400.000000pt" viewBox="0 0 400.000000 400.000000"
 preserveAspectRatio="xMidYMid meet">
<metadata>
Created by potrace 1.14, written by Peter Selinger 2001-2017
</metadata>
<g transform="translate(0.000000,400.000000) scale(0.100000,-0.100000)"
fill="#000000" stroke="none">
<path d="M1764 3698 c-2 -4 -14 -5 -26 -3 -11 3 -33 -5 -49 -16 -15 -10 -31
-19 -36 -18 -23 4 -43 -2 -38 -11 3 -5 0 -10 -7 -10 -8 0 -25 -18 -38 -40 -14
-22 -28 -40 -32 -40 -5 0 -8 -9 -8 -19 0 -11 -4 -23 -10 -26 -5 -3 -10 -13
-10 -21 0 -8 -7 -31 -17 -52 -16 -36 -19 -50 -22 -92 -2 -31 -31 -37 -53 -11
-10 13 -18 20 -18 16 0 -5 -8 2 -19 13 -10 12 -21 19 -25 15 -3 -3 -6 -1 -6 5
0 7 -7 12 -15 12 -7 0 -18 6 -22 13 -4 6 -19 18 -32 25 -13 8 -40 23 -59 34
-40 22 -111 29 -180 16 -26 -5 -55 -9 -65 -9 -9 0 -15 -4 -12 -9 3 -4 -2 -11
-11 -14 -10 -4 -13 -2 -9 7 4 6 -1 3 -9 -7 -9 -11 -16 -16 -16 -10 -1 5 -8 0
-18 -11 -9 -12 -25 -24 -34 -28 -10 -3 -18 -13 -18 -21 0 -7 -7 -17 -16 -20
-8 -3 -12 -10 -9 -16 3 -5 1 -10 -5 -10 -6 0 -8 -5 -5 -10 3 -6 -1 -13 -10
-16 -11 -5 -13 -10 -5 -19 7 -8 7 -14 1 -17 -5 -1 -12 -16 -15 -32 -3 -16 -9
-32 -13 -35 -4 -3 -9 -24 -10 -46 -1 -22 -3 -52 -6 -67 -2 -15 -1 -26 3 -23 4
2 7 -11 7 -30 0 -36 21 -113 35 -129 4 -6 8 -17 8 -26 0 -20 23 -70 31 -70 4
0 14 -12 24 -26 9 -15 11 -23 4 -19 -8 5 -10 4 -5 -3 4 -7 14 -12 22 -12 8 0
14 -7 14 -15 0 -9 16 -31 36 -50 20 -19 32 -36 27 -36 -30 -4 -40 -3 -58 5
-11 5 -38 11 -60 12 -22 1 -51 7 -65 12 -26 9 -54 9 -103 -2 -22 -5 -27 -4
-21 6 6 10 5 10 -7 1 -8 -6 -17 -12 -21 -12 -5 -1 -9 -1 -10 -2 -19 -5 -47
-11 -65 -12 -11 -1 -34 -13 -50 -27 -29 -26 -35 -30 -53 -30 -6 0 -9 -3 -8 -7
1 -5 -13 -24 -33 -45 -19 -20 -41 -49 -49 -65 -8 -15 -21 -36 -29 -46 -21 -25
-23 -40 -23 -134 0 -74 2 -85 31 -126 20 -30 47 -53 78 -68 27 -12 51 -27 55
-33 4 -6 8 -8 8 -3 0 4 12 0 26 -9 31 -21 24 -28 -66 -69 -36 -17 -69 -36 -73
-42 -4 -7 -13 -13 -18 -13 -18 0 -69 -61 -69 -81 0 -10 -4 -19 -8 -19 -4 0 -8
-10 -9 -22 0 -13 -2 -34 -2 -48 -3 -50 4 -107 16 -121 6 -8 11 -17 10 -21 -1
-3 8 -18 20 -32 13 -14 20 -26 18 -26 -3 0 0 -6 7 -14 7 -8 15 -13 16 -11 6 5
38 -30 45 -48 7 -19 125 -82 145 -78 8 1 19 -2 25 -7 24 -19 105 -34 113 -21
2 5 12 5 20 2 13 -5 13 -8 2 -15 -9 -6 -5 -7 11 -2 13 3 54 7 91 8 36 1 72 6
78 10 7 4 26 11 42 16 42 12 39 -5 -10 -58 -22 -24 -40 -47 -40 -52 0 -4 -3
-10 -8 -12 -25 -11 -102 -136 -102 -166 0 -11 -7 -36 -15 -56 -11 -25 -12 -42
-6 -54 5 -10 9 -32 9 -48 -1 -43 58 -161 104 -207 46 -46 103 -87 123 -87 7 0
15 -5 17 -10 2 -6 14 -12 27 -15 12 -2 28 -9 35 -14 6 -5 24 -12 40 -15 15 -3
33 -9 39 -14 7 -5 19 -8 27 -6 33 6 132 52 148 68 36 36 97 86 105 86 4 0 7 5
7 10 0 15 35 47 51 47 8 0 15 -7 16 -16 2 -23 8 -45 15 -57 4 -6 9 -22 12 -36
5 -30 27 -68 39 -68 4 0 5 -4 2 -10 -11 -19 45 -98 91 -127 61 -40 102 -55
150 -57 30 -1 54 2 54 7 0 5 6 4 14 -2 11 -9 15 -9 18 0 2 7 15 12 29 13 22 1
118 68 127 89 2 4 8 5 13 1 5 -3 9 0 9 6 0 7 14 29 30 50 17 21 30 42 30 48 0
5 7 12 15 16 8 3 14 9 14 13 -1 4 5 24 13 42 9 19 14 41 11 48 -3 7 0 13 6 13
6 0 11 13 11 28 0 16 6 36 13 46 13 17 16 16 54 -20 63 -61 94 -85 104 -78 5
3 9 1 9 -5 0 -6 18 -15 40 -21 22 -6 40 -15 40 -20 0 -5 22 -9 50 -8 45 0 53
-4 97 -46 76 -73 127 -116 139 -116 6 0 24 -13 40 -30 16 -16 37 -30 46 -30 9
0 20 -4 23 -10 3 -5 15 -10 25 -10 10 0 25 -7 33 -15 8 -8 17 -12 20 -9 8 8
57 -18 51 -28 -3 -5 -2 -8 3 -6 15 4 93 -14 98 -22 3 -4 14 -6 25 -3 11 3 20
1 20 -4 0 -11 49 -14 220 -14 76 0 136 4 138 9 2 6 12 8 22 5 12 -3 20 0 20 6
0 7 4 9 10 6 5 -3 18 -2 27 4 10 5 29 11 43 12 14 2 28 7 31 12 3 4 16 9 28
12 53 10 78 39 71 84 -4 30 -56 63 -79 51 -39 -20 -97 -43 -108 -43 -7 0 -13
-3 -13 -7 0 -4 -6 -7 -12 -8 -34 -3 -74 -10 -88 -15 -39 -14 -48 -15 -58 -5
-8 8 -15 8 -24 1 -7 -6 -22 -9 -33 -7 -43 7 -81 7 -93 0 -7 -4 -12 -3 -12 2 0
5 -28 13 -62 16 -35 4 -68 12 -75 18 -7 6 -13 8 -13 4 0 -4 -18 3 -40 14 -21
11 -46 20 -55 20 -8 0 -15 5 -15 11 0 5 -5 7 -10 4 -6 -3 -10 -2 -10 3 0 6
-11 12 -23 16 -13 3 -35 17 -49 31 -15 14 -36 28 -47 30 -12 2 -40 22 -63 44
-34 34 -39 43 -28 56 7 8 18 15 25 15 7 0 24 9 39 21 14 11 26 17 26 13 0 -5
8 2 18 15 9 13 25 32 34 42 10 10 20 33 23 51 3 18 8 41 11 52 4 11 2 16 -4
13 -5 -4 -8 5 -6 20 1 14 -2 37 -9 52 -10 25 -16 50 -19 81 0 8 -5 20 -10 27
-14 17 5 24 41 13 17 -5 31 -6 31 -2 0 4 4 1 8 -6 19 -30 178 -40 226 -15 17
10 35 16 39 15 4 -1 11 6 14 15 10 26 29 43 38 35 5 -4 5 -1 0 7 -5 9 -3 18 6
25 20 14 42 72 45 110 2 46 3 48 17 41 6 -4 5 -1 -4 7 -11 9 -13 21 -8 40 4
15 5 29 3 31 -2 2 -9 26 -14 53 -14 64 -13 61 -39 117 -13 26 -27 47 -32 47
-5 0 -9 6 -9 13 0 16 -65 87 -80 87 -6 0 -9 3 -7 8 3 4 -17 23 -44 42 -50 36
-63 60 -31 58 9 -1 38 8 64 20 26 12 53 22 61 22 8 0 20 7 27 15 7 8 21 15 31
15 11 0 19 4 19 10 0 5 18 19 40 30 22 11 40 26 40 32 0 6 3 9 6 5 3 -3 22 11
43 32 52 54 82 91 74 91 -3 0 2 10 13 23 23 26 54 86 59 113 2 10 4 19 5 19 1
0 3 18 4 40 4 56 -25 145 -57 177 -15 15 -27 33 -27 41 0 7 -18 24 -41 37 -22
14 -47 31 -54 38 -7 6 -21 12 -29 12 -9 0 -16 4 -16 10 0 5 -13 8 -30 6 -16
-2 -30 0 -30 4 0 4 -12 6 -26 4 -15 -1 -37 1 -50 6 -14 6 -26 6 -29 0 -7 -12
-135 -9 -135 3 0 5 11 22 25 39 14 16 25 35 25 43 0 7 9 19 20 26 11 8 21 27
22 42 1 16 8 33 15 38 6 6 9 18 6 26 -4 11 -2 14 5 9 8 -5 10 -2 6 8 -3 9 -3
24 1 34 12 27 17 54 17 92 0 37 -21 100 -34 100 -4 0 -8 6 -8 14 0 8 -7 16
-15 20 -8 3 -15 11 -15 19 0 7 -18 23 -40 36 -22 12 -40 25 -40 27 0 3 5 2 12
-2 6 -4 8 -3 4 4 -3 6 -20 13 -37 17 -17 4 -41 12 -54 19 -13 7 -39 11 -57 10
-18 -2 -59 -6 -91 -8 -32 -3 -65 -10 -73 -17 -8 -6 -14 -8 -14 -4 0 4 -6 2
-13 -4 -8 -6 -17 -8 -20 -4 -4 3 -7 2 -7 -4 0 -6 -10 -13 -23 -17 -21 -5 -36
-15 -84 -56 -7 -6 -13 -8 -13 -5 0 3 -11 -2 -25 -11 -14 -9 -25 -13 -25 -8 0
4 -6 -1 -14 -12 -8 -10 -19 -19 -24 -19 -12 0 -142 -116 -139 -124 1 -4 -9
-18 -23 -33 -14 -14 -33 -35 -42 -47 -18 -22 -38 -28 -38 -12 0 6 5 13 10 16
6 4 10 14 9 23 -1 10 1 25 6 35 4 10 8 30 10 45 1 15 4 34 8 42 16 42 26 104
28 173 1 26 5 50 10 52 4 3 6 11 4 18 -2 7 -6 35 -8 62 -3 28 -14 66 -25 85
-12 19 -29 48 -38 65 -9 16 -22 35 -29 42 -30 30 -162 96 -179 90 -6 -3 -20 0
-31 6 -22 12 -204 16 -211 5z"/>
</g>
</svg>
